<svg width="2452" height="1142" viewBox="0 0 2452 1142" fill="none" xmlns="http://www.w3.org/2000/svg">
<g clip-path="url(#clip0_502_437)">
<path d="M2451.64 740.731L1616 743.937C1616 743.937 1464.18 744.789 1381.88 643.445C1299.59 542.1 1282.63 467.303 1277.42 403.144L2202.6 398.029C2286.29 397.569 2364.03 494.139 2385.66 536.133C2407.29 578.127 2439.51 650.06 2451.64 740.731Z" fill="url(#paint0_linear_502_437)" stroke="#A59AA1" stroke-width="0.25" stroke-miterlimit="10"/>
<path d="M1186.4 1136.22L2088.07 1135.3C2088.07 1135.3 2251.89 1135.4 2340.17 1033.65C2428.44 931.895 2446.32 857.029 2451.63 792.853L1453.29 792.223C1362.95 792.223 1279.62 889.134 1256.49 931.162C1233.36 973.19 1199.04 1045.48 1186.4 1136.22Z" fill="url(#paint1_linear_502_437)" stroke="#A59AA1" stroke-width="0.25" stroke-miterlimit="10"/>
<path d="M344.086 1135.23L343.182 326.437C343.182 326.437 343.285 179.501 241.561 100.338C139.836 21.1758 64.9919 5.11486 0.817741 0.375C0.817741 0.375 0.255257 814.813 0.204122 895.817C0.152987 976.821 97.0876 1051.6 139.103 1072.33C181.119 1093.07 253.39 1123.89 344.086 1135.23Z" fill="url(#paint2_linear_502_437)" stroke="#A59AA1" stroke-width="0.25" stroke-miterlimit="10"/>
<path d="M344.086 1135.23C318.4 951.213 201.863 769.171 185.568 574.581C176.057 460.432 172.086 196.347 112.565 92.2236C54.2882 0.154297 18.1529 2.69473 0.5625 0.154297C0.5625 0.154297 102.167 548.58 108.61 802.436C111.201 903.831 140.024 975.236 176.466 1025.12C238.51 1110.02 323.615 1133.12 338.223 1135.44C341.359 1136.02 342.791 1136.43 344.086 1135.23Z" fill="#B41F63" stroke="black" stroke-width="0.25"/>
<path d="M344.086 1135.91C344.086 1135.91 149.126 878.749 139.172 408.736C133.717 150.976 64.9919 5.84728 0.817741 1.10742C0.817741 1.10742 0.255257 815.545 0.204122 896.549C0.152987 977.553 97.0876 1052.33 139.103 1073.07C181.119 1093.8 253.39 1124.57 344.086 1135.91Z" fill="url(#paint3_linear_502_437)"/>
<path d="M746.142 1135.08L745.239 326.284C745.239 326.284 745.341 179.349 643.617 100.186C541.893 21.0235 467.049 4.96252 402.874 0.222656C402.874 0.222656 402.312 814.661 402.261 895.665C402.21 976.668 499.144 1051.45 541.16 1072.18C583.176 1092.91 655.446 1123.74 746.142 1135.08Z" fill="url(#paint4_linear_502_437)" stroke="#A59AA1" stroke-width="0.25" stroke-miterlimit="10"/>
<path d="M746.142 1135.08C720.455 951.058 603.919 769.017 587.624 574.427C578.113 460.278 574.141 196.193 514.62 92.0693C456.344 0 420.209 2.54043 402.618 0C402.618 0 504.223 548.426 510.666 802.281C513.257 903.677 542.08 975.082 578.522 1024.97C640.565 1109.86 725.671 1132.96 740.278 1135.28C743.415 1135.86 744.846 1136.27 746.142 1135.08Z" fill="#B41F63" stroke="black" stroke-width="0.25"/>
<path d="M746.142 1135.76C746.142 1135.76 551.182 878.597 541.228 408.583C535.774 150.823 467.049 5.69494 402.874 0.955078C402.874 0.955078 402.312 815.393 402.261 896.397C402.21 977.401 499.144 1052.18 541.16 1072.91C583.176 1093.65 655.446 1124.42 746.142 1135.76Z" fill="url(#paint5_linear_502_437)"/>
<path d="M1148.4 1141.9L1147.5 333.105C1147.5 333.105 1147.6 186.169 1045.88 107.006C944.154 27.8438 869.309 11.7828 805.135 7.04297C805.135 7.04297 804.573 821.481 804.522 902.485C804.47 983.489 901.405 1058.27 943.421 1079C985.437 1099.73 1057.71 1130.56 1148.4 1141.9Z" fill="url(#paint6_linear_502_437)" stroke="#A59AA1" stroke-width="0.25" stroke-miterlimit="10"/>
<path d="M1148.4 1141.9C1122.72 957.879 1006.18 775.837 989.885 581.247C980.374 467.098 976.402 203.013 916.881 98.8896C858.605 6.82031 822.469 9.36074 804.879 6.82031C804.879 6.82031 906.484 555.246 912.927 809.102C915.518 910.497 944.341 981.902 980.783 1031.79C1042.83 1116.68 1127.93 1139.78 1142.54 1142.1C1145.68 1142.68 1147.11 1143.09 1148.4 1141.9Z" fill="#B41F63" stroke="black" stroke-width="0.25"/>
<path d="M1148.4 1142.58C1148.4 1142.58 953.443 885.417 943.489 415.404C938.035 157.644 869.309 12.5153 805.135 7.77539C805.135 7.77539 804.573 822.213 804.522 903.217C804.47 984.221 901.405 1059 943.421 1079.73C985.437 1100.47 1057.71 1131.24 1148.4 1142.58Z" fill="url(#paint7_linear_502_437)"/>
<path d="M1277.42 402.82C1419.77 497.225 1538.2 561.384 1739.33 577.394C1857.25 586.805 2254.53 617.598 2363.67 649.6C2451.81 676.147 2449.27 724.125 2451.81 741.669C2451.81 741.669 1885.31 640.819 1623.12 634.545C1518.38 632.056 1444.61 603.395 1393.01 567.113C1305.3 505.392 1279.58 423.161 1277.11 408.634C1276.63 405.548 1276.19 404.116 1277.42 402.82Z" fill="#B41F63" stroke="black" stroke-width="0.25"/>
<path d="M2451.64 740.732L1616 743.937C1616 743.937 1456.8 732.957 1381.88 651.152C1293.8 554.974 1282.63 467.303 1277.42 403.145C1277.42 403.145 1368.23 568.528 1695.82 617.87C1896.44 648.117 2100.55 650.01 2181.45 657.716C2254.96 664.707 2438.72 674.357 2451.64 740.732Z" fill="url(#paint8_linear_502_437)"/>
<path d="M1187.18 1136.36C1375.9 1110.54 1498.44 1036.17 1710.56 1002.98C1903.63 972.764 2148.82 947.632 2267.15 908.537C2344.85 879.774 2444.82 841.292 2451.74 792.223C2451.74 792.223 1788.53 894.062 1528.23 900.677C1424.26 903.32 1351.05 932.202 1299.91 968.689C1212.99 1030.8 1189.26 1115.93 1186.89 1130.56C1186.4 1133.63 1185.97 1135.06 1187.18 1136.36Z" fill="#B41F63" stroke="black" stroke-width="0.25"/>
<path d="M1186.48 1136.36C1186.48 1136.36 1450.08 941.186 1932.1 930.922C2196.39 925.296 2446.85 857.028 2451.66 792.818C2451.66 792.818 1514.85 792.188 1431.79 792.188C1348.73 792.188 1272.12 889.184 1250.86 931.246C1229.61 973.308 1198.07 1045.62 1186.48 1136.36Z" fill="url(#paint9_linear_502_437)"/>
<path d="M1276.63 350.665L2113.71 349.744C2113.71 349.744 2265.78 349.846 2347.72 248.093C2429.65 146.339 2446.27 71.4731 2451.18 7.29741L1524.43 6.68361C1440.67 6.63246 1363.2 103.544 1341.81 145.623C1320.42 187.702 1288.38 259.942 1276.63 350.665Z" fill="url(#paint10_linear_502_437)" stroke="#A59AA1" stroke-width="0.25" stroke-miterlimit="10"/>
<path d="M1277.04 350.664C1467.5 324.953 1655.92 208.4 1857.3 192.1C1975.44 182.586 2248.76 178.614 2356.51 119.059C2451.71 60.7822 2449.19 24.6365 2451.71 7.04102C2451.71 7.04102 1884.11 108.675 1621.4 115.12C1516.44 117.712 1442.55 146.526 1390.92 182.996C1303.05 245.057 1279.15 330.17 1276.72 344.799C1276.17 347.936 1275.75 349.368 1277.04 350.664Z" fill="#B41F63"/>
<path d="M1276.27 350.665C1276.27 350.665 1542.43 155.648 2028.94 145.691C2295.71 140.235 2445.91 71.4731 2450.82 7.29739L1524.06 6.68359C1440.23 6.68359 1362.83 103.578 1341.37 145.623C1319.91 187.668 1288.02 259.942 1276.27 350.665Z" fill="url(#paint11_linear_502_437)"/>
</g>
<defs>
<linearGradient id="paint0_linear_502_437" x1="-172.737" y1="465.512" x2="2391.68" y2="451.249" gradientUnits="userSpaceOnUse">
<stop offset="0.54" stop-color="#73438A"/>
<stop offset="0.83" stop-color="#CC3161"/>
</linearGradient>
<linearGradient id="paint1_linear_502_437" x1="-282.823" y1="963.295" x2="2467.94" y2="964.735" gradientUnits="userSpaceOnUse">
<stop offset="0.54" stop-color="#762E82"/>
<stop offset="0.95" stop-color="#EA4464"/>
</linearGradient>
<linearGradient id="paint2_linear_502_437" x1="171.067" y1="1135.42" x2="171.661" y2="0.753993" gradientUnits="userSpaceOnUse">
<stop offset="0.03" stop-color="#762E82"/>
<stop offset="0.42" stop-color="#CC3161"/>
<stop offset="1" stop-color="#E1637D"/>
</linearGradient>
<linearGradient id="paint3_linear_502_437" x1="170.377" y1="2454.06" x2="171.669" y2="-13.1764" gradientUnits="userSpaceOnUse">
<stop stop-color="#574896"/>
<stop offset="0.46" stop-color="#A72651"/>
<stop offset="0.56" stop-color="#B23253"/>
<stop offset="0.74" stop-color="#EE6B62"/>
<stop offset="1" stop-color="#F2A1AA"/>
</linearGradient>
<linearGradient id="paint4_linear_502_437" x1="573.123" y1="1135.27" x2="573.718" y2="0.601649" gradientUnits="userSpaceOnUse">
<stop offset="0.03" stop-color="#762E82"/>
<stop offset="0.42" stop-color="#CC3161"/>
<stop offset="1" stop-color="#E1637D"/>
</linearGradient>
<linearGradient id="paint5_linear_502_437" x1="572.433" y1="2453.91" x2="573.725" y2="-13.3288" gradientUnits="userSpaceOnUse">
<stop stop-color="#574896"/>
<stop offset="0.46" stop-color="#A72651"/>
<stop offset="0.56" stop-color="#B23253"/>
<stop offset="0.74" stop-color="#EE6B62"/>
<stop offset="1" stop-color="#F2A1AA"/>
</linearGradient>
<linearGradient id="paint6_linear_502_437" x1="975.384" y1="1142.09" x2="975.978" y2="7.42196" gradientUnits="userSpaceOnUse">
<stop offset="0.03" stop-color="#762E82"/>
<stop offset="0.42" stop-color="#CC3161"/>
<stop offset="1" stop-color="#E1637D"/>
</linearGradient>
<linearGradient id="paint7_linear_502_437" x1="974.694" y1="2460.73" x2="975.986" y2="-6.50847" gradientUnits="userSpaceOnUse">
<stop stop-color="#574896"/>
<stop offset="0.46" stop-color="#A72651"/>
<stop offset="0.56" stop-color="#B23253"/>
<stop offset="0.74" stop-color="#EE6B62"/>
<stop offset="1" stop-color="#F2A1AA"/>
</linearGradient>
<linearGradient id="paint8_linear_502_437" x1="3744.01" y1="477.277" x2="1183.09" y2="502.879" gradientUnits="userSpaceOnUse">
<stop offset="0.25" stop-color="#F49E72"/>
<stop offset="0.79" stop-color="#EE6B77"/>
<stop offset="0.93" stop-color="#B72B59"/>
<stop offset="1" stop-color="#594193"/>
</linearGradient>
<linearGradient id="paint9_linear_502_437" x1="-283.048" y1="964.289" x2="2467.94" y2="964.289" gradientUnits="userSpaceOnUse">
<stop stop-color="#574896"/>
<stop offset="0.46" stop-color="#A72651"/>
<stop offset="0.67" stop-color="#EE6B62"/>
<stop offset="1" stop-color="#F3A09A"/>
</linearGradient>
<linearGradient id="paint10_linear_502_437" x1="-87.3229" y1="177.745" x2="2466.18" y2="179.081" gradientUnits="userSpaceOnUse">
<stop offset="0.03" stop-color="#762E82"/>
<stop offset="0.61" stop-color="#7D2E80"/>
<stop offset="0.77" stop-color="#CC3161"/>
<stop offset="1" stop-color="#E04E76"/>
</linearGradient>
<linearGradient id="paint11_linear_502_437" x1="-87.6986" y1="177.745" x2="2465.82" y2="179.081" gradientUnits="userSpaceOnUse">
<stop stop-color="#574896"/>
<stop offset="0.53" stop-color="#A72651"/>
<stop offset="0.69" stop-color="#EE6B62"/>
<stop offset="1" stop-color="#F3997C"/>
</linearGradient>
<clipPath id="clip0_502_437">
<rect width="2452" height="1142" fill="white"/>
</clipPath>
</defs>
</svg>
